<svg width="80" height="140" viewBox="0 0 80 140" fill="none" xmlns="http://www.w3.org/2000/svg">
<path d="M80 20C80 5.2 66.6667 0.499999 60 -8.74228e-07L60 20L80 20Z" fill="#4E616C"/>
<path d="M60 80C74.8 80 79.5 66.6667 80 60L60 60L60 80Z" fill="#4E616C"/>
<rect x="40" width="20" height="20" fill="#4E616C"/>
<rect x="60" y="20" width="20" height="20" fill="#4E616C"/>
<rect x="60" y="40" width="20" height="20" fill="#4E616C"/>
<rect x="20" width="20" height="20" fill="#4E616C"/>
<path d="M40 20C55.6 20 59.8333 33.3333 60 40L60 20L40 20Z" fill="#4E616C"/>
<path d="M60 40C60 55.6 46.6667 59.8333 40 60L60 60L60 40Z" fill="#4E616C"/>
<path d="M0 20L20 0L20 20L0 20Z" fill="#4E616C"/>
<path d="M20 120C5.2 120 0.5 133.333 0 140H20L20 120Z" fill="#4E616C"/>
<path d="M80 100C80 85.2 66.6667 80.5 60 80L60 100L80 100Z" fill="#4E616C"/>
<rect x="20" y="60" width="20" height="20" fill="#4E616C"/>
<rect x="60" y="100" width="20" height="20" fill="#4E616C"/>
<rect x="40" y="120" width="20" height="20" fill="#4E616C"/>
<rect x="40" y="60" width="20" height="20" fill="#4E616C"/>
<path d="M60 100C60 115.6 46.6667 119.833 40 120L60 120L60 100Z" fill="#4E616C"/>
<path d="M40 80C55.6 80 59.8333 93.3333 60 100L60 80L40 80Z" fill="#4E616C"/>
<path d="M80 120L60 140L60 120L80 120Z" fill="#4E616C"/>
<rect x="20" y="120" width="20" height="20" fill="#4E616C"/>
</svg>
