<svg width="80" height="140" viewBox="0 0 80 140" fill="none" xmlns="http://www.w3.org/2000/svg">
<path d="M0 20L20 0L20 20L0 20Z" fill="#4E616C"/>
<rect x="20" width="20" height="20" fill="#4E616C"/>
<path d="M80 20C80 5.2 66.6667 0.499999 60 -8.74228e-07L60 20L80 20Z" fill="#4E616C"/>
<rect x="40" width="20" height="20" fill="#4E616C"/>
<rect x="60" y="20" width="20" height="20" fill="#4E616C"/>
<rect x="60" y="40" width="20" height="20" fill="#4E616C"/>
<rect x="60" y="60" width="20" height="20" fill="#4E616C"/>
<rect x="60" y="80" width="20" height="20" fill="#4E616C"/>
<rect x="60" y="100" width="20" height="20" fill="#4E616C"/>
<path d="M80 120L60 140V120H80Z" fill="#4E616C"/>
<path d="M40 20C55.6 20 59.8333 33.3333 60 40L60 20L40 20Z" fill="#4E616C"/>
</svg>
