<svg width="80" height="80" viewBox="0 0 80 80" fill="none" xmlns="http://www.w3.org/2000/svg">
<rect x="40" y="40" width="20" height="10" fill="#4E616C"/>
<rect x="40" width="20" height="10" fill="#4E616C"/>
<rect x="20" y="40" width="20" height="10" fill="#4E616C"/>
<rect y="50" width="20" height="10" fill="#4E616C"/>
<rect y="10" width="20" height="20" fill="#4E616C"/>
<rect y="30" width="20" height="20" fill="#4E616C"/>
<rect x="60" y="10" width="20" height="20" fill="#4E616C"/>
<rect x="20" width="20" height="10" fill="#4E616C"/>
<path d="M80 30L60 50L60 30L80 30Z" fill="#4E616C"/>
<path d="M80 10C80 2.6 66.6667 0.25 60 -4.37114e-07L60 10L80 10Z" fill="#4E616C"/>
<path d="M40 40C24.4 40 20.1667 26.6667 20 20V40H40Z" fill="#4E616C"/>
<path d="M40 10C55.6 10 59.8333 23.3333 60 30L60 10L40 10Z" fill="#4E616C"/>
<path d="M-1.90735e-06 10L20 9.53674e-07L20 10L-1.90735e-06 10Z" fill="#4E616C"/>
<path d="M40 80C24.4 80 20.1667 66.6667 20 60V80H40Z" fill="#4E616C"/>
<path d="M60 60C60 75.6 46.6667 79.8333 40 80L60 80L60 60Z" fill="#4E616C"/>
<path d="M-8.74228e-07 60C-2.27299e-07 74.8 13.3333 79.5 20 80L20 60L-8.74228e-07 60Z" fill="#4E616C"/>
<path d="M60 80C74.8 80 79.5 66.6667 80 60L60 60L60 80Z" fill="#4E616C"/>
</svg>
