<svg width="20" height="120" viewBox="0 0 20 120" fill="none" xmlns="http://www.w3.org/2000/svg">
<rect y="80" width="20" height="20" fill="#4E616C"/>
<rect y="60" width="20" height="20" fill="#4E616C"/>
<path d="M-8.74228e-07 100C-2.27299e-07 114.8 13.3333 119.5 20 120L20 100L-8.74228e-07 100Z" fill="#4E616C"/>
<path d="M20 60C20 45.2 6.66667 40.5 -1.90735e-06 40L-2.78158e-06 60L20 60Z" fill="#4E616C"/>
<rect x="5" width="5" height="5" fill="#4E616C"/>
<rect x="5" y="10" width="5" height="5" fill="#4E616C"/>
<rect x="5" y="5" width="5" height="5" fill="#4E616C"/>
<rect x="5" y="15" width="5" height="5" fill="#4E616C"/>
<rect y="10" width="5" height="5" fill="#4E616C"/>
<rect y="5" width="5" height="5" fill="#4E616C"/>
<rect x="15" y="10" width="5" height="5" fill="#4E616C"/>
<rect x="15" y="5" width="5" height="5" fill="#4E616C"/>
<rect x="10" width="5" height="5" fill="#4E616C"/>
<rect x="10" y="10" width="5" height="5" fill="#4E616C"/>
<rect x="10" y="5" width="5" height="5" fill="#4E616C"/>
<rect x="10" y="15" width="5" height="5" fill="#4E616C"/>
<path d="M20 5C20 1.3 16.6667 0.125 15 -2.18557e-07L15 5L20 5Z" fill="#4E616C"/>
<path d="M-2.18557e-07 15C-5.68248e-08 18.7 3.33333 19.875 5 20L5 15L-2.18557e-07 15Z" fill="#4E616C"/>
<path d="M20 15L15 20V15H20Z" fill="#4E616C"/>
<path d="M0 5L5 0L5 5L0 5Z" fill="#4E616C"/>
<path d="M20 60C20 45.2 6.66667 40.5 -1.90735e-06 40L-2.78158e-06 60L20 60Z" fill="#4E616C"/>
</svg>
