<svg width="80" height="120" viewBox="0 0 80 120" fill="none" xmlns="http://www.w3.org/2000/svg">
<path d="M80 100L60 120V100H80Z" fill="#4E616C"/>
<path d="M20 60L40 40L40 60L20 60Z" fill="#4E616C"/>
<path d="M40 40L60 20L60 40L40 40Z" fill="#4E616C"/>
<path d="M40 60L20 80V60H40Z" fill="#4E616C"/>
<path d="M60 40L40 60V40H60Z" fill="#4E616C"/>
<path d="M80 20L60 40V20H80Z" fill="#4E616C"/>
<path d="M2.38498e-07 100C6.20094e-08 114.8 13.3333 119.5 20 120L20 100L2.38498e-07 100Z" fill="#4E616C"/>
<rect y="40" width="20" height="20" fill="#4E616C"/>
<rect y="80" width="20" height="20" fill="#4E616C"/>
<rect y="20" width="20" height="20" fill="#4E616C"/>
<rect y="60" width="20" height="20" fill="#4E616C"/>
<rect x="60" y="80" width="20" height="20" fill="#4E616C"/>
<path d="M20 20C20 5.2 6.66667 0.5 -1.90735e-06 2.38498e-07L-1.66885e-06 20L20 20Z" fill="#4E616C"/>
<path d="M40 60C55.6 60 59.8333 73.3333 60 80L60 60L40 60Z" fill="#4E616C"/>
<path d="M80 80C80 65.2 66.6667 60.5 60 60L60 80L80 80Z" fill="#4E616C"/>
</svg>
