<svg width="80" height="160" viewBox="0 0 80 160" fill="none" xmlns="http://www.w3.org/2000/svg">
<rect y="40" width="20" height="20" fill="#4E616C"/>
<rect y="80" width="20" height="20" fill="#4E616C"/>
<rect y="20" width="20" height="20" fill="#4E616C"/>
<rect y="60" width="20" height="20" fill="#4E616C"/>
<rect y="120" width="20" height="20" fill="#4E616C"/>
<rect y="100" width="20" height="20" fill="#4E616C"/>
<path d="M2.38498e-07 140C6.20094e-08 154.8 13.3333 159.5 20 160L20 140L2.38498e-07 140Z" fill="#4E616C"/>
<path d="M60 140C60 155.6 46.6667 159.833 40 160L60 160L60 140Z" fill="#4E616C"/>
<path d="M40 160C24.4 160 20.1667 146.667 20 140L20 160H40Z" fill="#4E616C"/>
<path d="M20 20C20 5.2 6.66667 0.5 -1.90735e-06 2.38498e-07L-1.66885e-06 20L20 20Z" fill="#4E616C"/>
<path d="M80 140C80 125.2 66.6667 120.5 60 120L60 140L80 140Z" fill="#4E616C"/>
<path d="M80 140L60 160V140H80Z" fill="#4E616C"/>
</svg>
