<svg width="110" height="160" viewBox="0 0 110 160" fill="none" xmlns="http://www.w3.org/2000/svg">
<rect x="20" width="20" height="20" fill="#4E616C"/>
<rect x="20" y="60" width="20" height="20" fill="#4E616C"/>
<rect x="60" y="40" width="20" height="20" fill="#4E616C"/>
<rect x="60" y="20" width="20" height="20" fill="#4E616C"/>
<rect y="40" width="20" height="20" fill="#4E616C"/>
<rect y="20" width="20" height="20" fill="#4E616C"/>
<rect x="40" y="60" width="20" height="20" fill="#4E616C"/>
<rect x="40" width="20" height="20" fill="#4E616C"/>
<path d="M0 20L20 0L20 20L0 20Z" fill="#4E616C"/>
<path d="M80 60L60 80L60 60L80 60Z" fill="#4E616C"/>
<path d="M-8.74228e-07 60C-2.27299e-07 74.8 13.3333 79.5 20 80L20 60L-8.74228e-07 60Z" fill="#4E616C"/>
<path d="M80 20C80 5.2 66.6667 0.499999 60 -8.74228e-07L60 20L80 20Z" fill="#4E616C"/>
<path d="M40 60C24.4 60 20.1667 46.6667 20 40V60H40Z" fill="#4E616C"/>
<path d="M40 20C55.6 20 59.8333 33.3333 60 40L60 20L40 20Z" fill="#4E616C"/>
<path d="M110 20C110 5.2 96.6667 0.499999 90 -8.74228e-07L90 20L110 20Z" fill="#4E616C"/>
<rect x="90" y="20" width="20" height="20" fill="#4E616C"/>
<rect x="90" y="40" width="20" height="20" fill="#4E616C"/>
<rect x="90" y="80" width="20" height="20" fill="#4E616C"/>
<rect x="90" y="60" width="20" height="20" fill="#4E616C"/>
<rect x="90" y="120" width="20" height="20" fill="#4E616C"/>
<rect x="90" y="100" width="20" height="20" fill="#4E616C"/>
<path d="M90 140C90 154.8 103.333 159.5 110 160L110 140L90 140Z" fill="#4E616C"/>
</svg>
