<svg width="80" height="80" viewBox="0 0 80 80" fill="none" xmlns="http://www.w3.org/2000/svg">
<path d="M0 20L20 0L20 20L0 20Z" fill="#4E616C"/>
<path d="M80 60C80 45.2 66.6667 40.5 60 40L60 60L80 60Z" fill="#4E616C"/>
<path d="M80 20C80 5.2 66.6667 0.5 60 2.38498e-07L60 20L80 20Z" fill="#4E616C"/>
<path d="M20 40C5.2 40 0.5 53.3333 0 60H20V40Z" fill="#4E616C"/>
<path d="M-8.74228e-07 20C-2.27299e-07 34.8 13.3333 39.5 20 40L20 20L-8.74228e-07 20Z" fill="#4E616C"/>
<path d="M60 40C74.8 40 79.5 26.6667 80 20L60 20L60 40Z" fill="#4E616C"/>
<path d="M-8.74228e-07 60C-2.27299e-07 74.8 13.3333 79.5 20 80L20 60L-8.74228e-07 60Z" fill="#4E616C"/>
<path d="M40 40C24.4 40 20.1667 26.6667 20 20L20 40L40 40Z" fill="#4E616C"/>
<path d="M60 20C60 35.6 46.6667 39.8333 40 40L60 40L60 20Z" fill="#4E616C"/>
<path d="M20 60C20 44.4 33.3333 40.1667 40 40L20 40L20 60Z" fill="#4E616C"/>
<path d="M40 40C55.6 40 59.8333 53.3333 60 60L60 40L40 40Z" fill="#4E616C"/>
<path d="M80 60L60 80V60H80Z" fill="#4E616C"/>
</svg>
