<svg width="200" height="200" viewBox="0 0 200 200" fill="none" xmlns="http://www.w3.org/2000/svg">
<rect x="35" y="35" width="130" height="130" rx="11" stroke="black" stroke-width="10"/>
<path d="M56.125 99.3438C56.125 91.3021 58.2812 85.1042 62.5938 80.75C66.3438 76.9583 71.1146 75.0625 76.9062 75.0625C84.6562 75.0625 90.3229 77.6042 93.9062 82.6875C95.8854 85.5417 96.9479 88.4062 97.0938 91.2812H87.4688C86.8438 89.0729 86.0417 87.4062 85.0625 86.2812C83.3125 84.2812 80.7188 83.2812 77.2812 83.2812C73.7812 83.2812 71.0208 84.6979 69 87.5312C66.9792 90.3438 65.9688 94.3333 65.9688 99.5C65.9688 104.667 67.0312 108.542 69.1562 111.125C71.3021 113.688 74.0208 114.969 77.3125 114.969C80.6875 114.969 83.2604 113.865 85.0312 111.656C86.0104 110.469 86.8229 108.688 87.4688 106.312H97C96.1667 111.333 94.0312 115.417 90.5938 118.562C87.1771 121.708 82.7917 123.281 77.4375 123.281C70.8125 123.281 65.6042 121.156 61.8125 116.906C58.0208 112.635 56.125 106.781 56.125 99.3438ZM102.375 99.3438C102.375 91.3021 104.531 85.1042 108.844 80.75C112.594 76.9583 117.365 75.0625 123.156 75.0625C130.906 75.0625 136.573 77.6042 140.156 82.6875C142.135 85.5417 143.198 88.4062 143.344 91.2812H133.719C133.094 89.0729 132.292 87.4062 131.312 86.2812C129.562 84.2812 126.969 83.2812 123.531 83.2812C120.031 83.2812 117.271 84.6979 115.25 87.5312C113.229 90.3438 112.219 94.3333 112.219 99.5C112.219 104.667 113.281 108.542 115.406 111.125C117.552 113.688 120.271 114.969 123.562 114.969C126.938 114.969 129.51 113.865 131.281 111.656C132.26 110.469 133.073 108.688 133.719 106.312H143.25C142.417 111.333 140.281 115.417 136.844 118.562C133.427 121.708 129.042 123.281 123.688 123.281C117.062 123.281 111.854 121.156 108.062 116.906C104.271 112.635 102.375 106.781 102.375 99.3438Z" fill="black"/>
</svg>
