<svg width="200" height="200" viewBox="0 0 200 200" fill="none" xmlns="http://www.w3.org/2000/svg">
<rect width="200" height="200" fill="white"/>
<mask id="path-1-inside-1" fill="white">
<path fill-rule="evenodd" clip-rule="evenodd" d="M100.177 38C72.5625 38 50.1768 60.3858 50.1768 88V128L39.7203 145.428C37.7207 148.76 40.1212 153 44.0077 153H156.346C160.232 153 162.633 148.76 160.633 145.428L150.177 128V88C150.177 60.3858 127.791 38 100.177 38Z"/>
</mask>
<path d="M50.1768 128L55.3217 131.087L56.1768 129.662V128H50.1768ZM39.7203 145.428L34.5753 142.341L34.5753 142.341L39.7203 145.428ZM160.633 145.428L155.488 148.515L155.488 148.515L160.633 145.428ZM150.177 128H144.177V129.662L145.032 131.087L150.177 128ZM56.1768 88C56.1768 63.6995 75.8762 44 100.177 44V32C69.2488 32 44.1768 57.0721 44.1768 88H56.1768ZM56.1768 128V88H44.1768V128H56.1768ZM44.8652 148.514L55.3217 131.087L45.0318 124.913L34.5753 142.341L44.8652 148.514ZM44.0077 147C44.785 147 45.2651 147.848 44.8652 148.514L34.5753 142.341C30.1763 149.672 35.4575 159 44.0077 159V147ZM156.346 147H44.0077V159H156.346V147ZM155.488 148.515C155.088 147.848 155.569 147 156.346 147V159C164.896 159 170.177 149.672 165.778 142.341L155.488 148.515ZM145.032 131.087L155.488 148.515L165.778 142.341L155.322 124.913L145.032 131.087ZM144.177 88V128H156.177V88H144.177ZM100.177 44C124.477 44 144.177 63.6995 144.177 88H156.177C156.177 57.0721 131.105 32 100.177 32V44Z" fill="black" mask="url(#path-1-inside-1)"/>
<circle cx="99.6768" cy="30.5" r="7.5" stroke="black" stroke-width="6"/>
<mask id="path-4-inside-2" fill="white">
<path d="M82.1768 147.5C82.1768 149.929 82.6553 152.335 83.585 154.58C84.5147 156.824 85.8774 158.864 87.5953 160.581C89.3132 162.299 91.3526 163.662 93.5971 164.592C95.8416 165.521 98.2473 166 100.677 166C103.106 166 105.512 165.521 107.756 164.592C110.001 163.662 112.04 162.299 113.758 160.581C115.476 158.864 116.839 156.824 117.769 154.58C118.698 152.335 119.177 149.929 119.177 147.5L100.677 147.5L82.1768 147.5Z"/>
</mask>
<path d="M82.1768 147.5C82.1768 149.929 82.6553 152.335 83.585 154.58C84.5147 156.824 85.8774 158.864 87.5953 160.581C89.3132 162.299 91.3526 163.662 93.5971 164.592C95.8416 165.521 98.2473 166 100.677 166C103.106 166 105.512 165.521 107.756 164.592C110.001 163.662 112.04 162.299 113.758 160.581C115.476 158.864 116.839 156.824 117.769 154.58C118.698 152.335 119.177 149.929 119.177 147.5L100.677 147.5L82.1768 147.5Z" stroke="black" stroke-width="12" mask="url(#path-4-inside-2)"/>
</svg>
