<svg width="200" height="200" viewBox="0 0 200 200" fill="none" xmlns="http://www.w3.org/2000/svg">
<rect width="200" height="200" fill="white"/>
<path d="M160 111C160 144.137 133.137 171 100 171C66.8629 171 40 144.137 40 111C40 77.8629 66.8629 51 100 51" stroke="black" stroke-width="8" stroke-linecap="round"/>
<path d="M126 53.232L104.25 65.7894L104.25 37.2106L126 49.7679C127.333 50.5377 127.333 52.4622 126 53.232Z" stroke="black" stroke-width="6"/>
<path d="M127.25 37.2106L152 51.5L127.25 65.7894L127.25 37.2106Z" stroke="black" stroke-width="6"/>
<path d="M66.8295 96.624C68.3655 96.624 69.8588 96.496 71.3095 96.24C72.7602 95.984 74.0615 95.5573 75.2135 94.96C76.4082 94.3627 77.4108 93.5947 78.2215 92.656C79.0748 91.7173 79.6295 90.5653 79.8855 89.2H85.8375V134H77.8375V102.384H66.8295V96.624ZM106.872 89.2H130.04V95.728H112.312L110.008 107.12L110.136 107.248C111.117 106.139 112.355 105.307 113.848 104.752C115.384 104.155 116.899 103.856 118.392 103.856C120.611 103.856 122.595 104.24 124.344 105.008C126.093 105.733 127.565 106.779 128.76 108.144C129.955 109.467 130.851 111.045 131.448 112.88C132.088 114.715 132.408 116.699 132.408 118.832C132.408 120.624 132.109 122.48 131.512 124.4C130.957 126.277 130.04 128.005 128.76 129.584C127.523 131.12 125.923 132.4 123.96 133.424C121.997 134.405 119.651 134.896 116.92 134.896C114.744 134.896 112.717 134.597 110.84 134C109.005 133.445 107.384 132.592 105.976 131.44C104.568 130.288 103.437 128.88 102.584 127.216C101.773 125.509 101.325 123.525 101.24 121.264H108.536C108.749 123.696 109.581 125.573 111.032 126.896C112.483 128.176 114.403 128.816 116.792 128.816C118.328 128.816 119.629 128.56 120.696 128.048C121.763 127.536 122.616 126.832 123.256 125.936C123.939 125.04 124.408 123.995 124.664 122.8C124.963 121.605 125.112 120.325 125.112 118.96C125.112 117.723 124.941 116.549 124.6 115.44C124.259 114.288 123.747 113.285 123.064 112.432C122.381 111.579 121.485 110.896 120.376 110.384C119.309 109.872 118.051 109.616 116.6 109.616C115.064 109.616 113.613 109.915 112.248 110.512C110.925 111.067 109.965 112.133 109.368 113.712H102.072L106.872 89.2Z" fill="black"/>
</svg>
