<svg width="80" height="140" viewBox="0 0 80 140" fill="none" xmlns="http://www.w3.org/2000/svg">
<rect x="20" width="20" height="20" fill="#4E616C"/>
<rect x="40" width="20" height="20" fill="#4E616C"/>
<rect y="20" width="20" height="20" fill="#4E616C"/>
<rect x="60" y="20" width="20" height="20" fill="#4E616C"/>
<path d="M20 40C20 24.4 33.3333 20.1667 40 20L20 20L20 40Z" fill="#4E616C"/>
<path d="M0 20L20 0L20 20L0 20Z" fill="#4E616C"/>
<path d="M80 20C80 5.2 66.6667 0.499999 60 -8.74228e-07L60 20L80 20Z" fill="#4E616C"/>
<path d="M60 60C74.8 60 79.5 46.6667 80 40L60 40L60 60Z" fill="#4E616C"/>
<path d="M-8.74228e-07 40C-2.27299e-07 54.8 13.3333 59.5 20 60L20 40L-8.74228e-07 40Z" fill="#4E616C"/>
<path d="M20 60C5.2 60 0.5 73.3333 0 80H20L20 60Z" fill="#4E616C"/>
<rect x="40" y="120" width="20" height="20" fill="#4E616C"/>
<rect x="60" y="100" width="20" height="20" fill="#4E616C"/>
<rect x="60" y="80" width="20" height="20" fill="#4E616C"/>
<rect y="80" width="20" height="20" fill="#4E616C"/>
<rect y="100" width="20" height="20" fill="#4E616C"/>
<rect x="20" y="120" width="20" height="20" fill="#4E616C"/>
<path d="M40 120C24.4 120 20.1667 106.667 20 100L20 120H40Z" fill="#4E616C"/>
<path d="M60 100C60 115.6 46.6667 119.833 40 120L60 120L60 100Z" fill="#4E616C"/>
<path d="M40 60C55.6 60 59.8333 73.3333 60 80L60 60L40 60Z" fill="#4E616C"/>
<path d="M40 20C55.6 20 59.8333 33.3333 60 40L60 20L40 20Z" fill="#4E616C"/>
<path d="M20 80C20 64.4 33.3333 60.1667 40 60L20 60L20 80Z" fill="#4E616C"/>
<path d="M40 60C24.4 60 20.1667 46.6667 20 40L20 60L40 60Z" fill="#4E616C"/>
<path d="M60 40C60 55.6 46.6667 59.8333 40 60L60 60L60 40Z" fill="#4E616C"/>
<path d="M80 80C80 65.2 66.6667 60.5 60 60L60 80L80 80Z" fill="#4E616C"/>
<path d="M-8.74228e-07 120C-2.27299e-07 134.8 13.3333 139.5 20 140L20 120L-8.74228e-07 120Z" fill="#4E616C"/>
<path d="M80 120L60 140V120H80Z" fill="#4E616C"/>
</svg>
