<svg width="80" height="140" viewBox="0 0 80 140" fill="none" xmlns="http://www.w3.org/2000/svg">
<rect x="20" width="20" height="20" fill="#4E616C"/>
<rect x="40" width="20" height="20" fill="#4E616C"/>
<rect y="20" width="20" height="20" fill="#4E616C"/>
<rect y="40" width="20" height="20" fill="#4E616C"/>
<rect x="60" y="20" width="20" height="20" fill="#4E616C"/>
<rect x="60" y="40" width="20" height="20" fill="#4E616C"/>
<rect x="60" y="60" width="20" height="20" fill="#4E616C"/>
<rect x="60" y="80" width="20" height="20" fill="#4E616C"/>
<rect x="60" y="100" width="20" height="20" fill="#4E616C"/>
<rect x="20" y="120" width="20" height="20" fill="#4E616C"/>
<rect x="40" y="120" width="20" height="20" fill="#4E616C"/>
<path d="M80 120L60 140V120H80Z" fill="#4E616C"/>
<path d="M80 120L60 140V120H80Z" fill="#4E616C"/>
<path d="M0 20L20 0L20 20L0 20Z" fill="#4E616C"/>
<path d="M80 20C80 5.2 66.6667 0.499999 60 -8.74228e-07L60 20L80 20Z" fill="#4E616C"/>
<path d="M40 80C24.4 80 20.1667 66.6667 20 60L20 80L40 80Z" fill="#4E616C"/>
<path d="M20 40C20 24.4 33.3333 20.1667 40 20L20 20L20 40Z" fill="#4E616C"/>
<path d="M40 20C55.6 20 59.8333 33.3333 60 40L60 20L40 20Z" fill="#4E616C"/>
<path d="M60 60C60 75.6 46.6667 79.8333 40 80L60 80L60 60Z" fill="#4E616C"/>
<path d="M-8.74228e-07 60C-2.27299e-07 74.8 13.3333 79.5 20 80L20 60L-8.74228e-07 60Z" fill="#4E616C"/>
<path d="M-8.74228e-07 120C-2.27299e-07 134.8 13.3333 139.5 20 140L20 120L-8.74228e-07 120Z" fill="#4E616C"/>
<path d="M40 80C55.6 80 59.8333 93.3333 60 100L60 80L40 80Z" fill="#4E616C"/>
<path d="M60 100C60 115.6 46.6667 119.833 40 120L60 120L60 100Z" fill="#4E616C"/>
</svg>
