<svg width="110" height="160" viewBox="0 0 110 160" fill="none" xmlns="http://www.w3.org/2000/svg">
<rect x="20" y="80" width="20" height="20" fill="#4E616C"/>
<rect x="20" y="140" width="20" height="20" fill="#4E616C"/>
<rect x="60" y="120" width="20" height="20" fill="#4E616C"/>
<rect x="60" y="100" width="20" height="20" fill="#4E616C"/>
<rect y="120" width="20" height="20" fill="#4E616C"/>
<rect y="100" width="20" height="20" fill="#4E616C"/>
<rect x="40" y="140" width="20" height="20" fill="#4E616C"/>
<rect x="40" y="80" width="20" height="20" fill="#4E616C"/>
<path d="M0 100L20 80L20 100L0 100Z" fill="#4E616C"/>
<path d="M80 140L60 160L60 140L80 140Z" fill="#4E616C"/>
<path d="M-8.74228e-07 140C-2.27299e-07 154.8 13.3333 159.5 20 160L20 140L-8.74228e-07 140Z" fill="#4E616C"/>
<path d="M80 100C80 85.2 66.6667 80.5 60 80L60 100L80 100Z" fill="#4E616C"/>
<path d="M40 140C24.4 140 20.1667 126.667 20 120V140H40Z" fill="#4E616C"/>
<path d="M40 100C55.6 100 59.8333 113.333 60 120L60 100L40 100Z" fill="#4E616C"/>
<path d="M110 20C110 5.2 96.6667 0.499999 90 -8.74228e-07L90 20L110 20Z" fill="#4E616C"/>
<rect x="90" y="20" width="20" height="20" fill="#4E616C"/>
<rect x="90" y="40" width="20" height="20" fill="#4E616C"/>
<rect x="90" y="80" width="20" height="20" fill="#4E616C"/>
<rect x="90" y="60" width="20" height="20" fill="#4E616C"/>
<rect x="90" y="120" width="20" height="20" fill="#4E616C"/>
<rect x="90" y="100" width="20" height="20" fill="#4E616C"/>
<path d="M90 140C90 154.8 103.333 159.5 110 160L110 140L90 140Z" fill="#4E616C"/>
</svg>
