<svg width="90" height="160" viewBox="0 0 90 160" fill="none" xmlns="http://www.w3.org/2000/svg">
<rect x="50" y="80" width="20" height="20" fill="#4E616C"/>
<rect x="70" y="120" width="20" height="20" fill="#4E616C"/>
<rect x="70" y="100" width="20" height="20" fill="#4E616C"/>
<path d="M70 140C70 154.8 83.3333 159.5 90 160L90 140L70 140Z" fill="#4E616C"/>
<path d="M50 100C65.6 100 69.8333 113.333 70 120L70 100L50 100Z" fill="#4E616C"/>
<path d="M90 100C90 85.2 76.6667 80.5 70 80L70 100L90 100Z" fill="#4E616C"/>
<path d="M30 100L50 80L50 100L30 100Z" fill="#4E616C"/>
<path d="M20 20C20 5.2 6.66667 0.499999 -1.90735e-06 -8.74228e-07L-2.78158e-06 20L20 20Z" fill="#4E616C"/>
<rect y="20" width="20" height="20" fill="#4E616C"/>
<rect y="40" width="20" height="20" fill="#4E616C"/>
<rect y="80" width="20" height="20" fill="#4E616C"/>
<rect y="60" width="20" height="20" fill="#4E616C"/>
<rect y="120" width="20" height="20" fill="#4E616C"/>
<rect y="100" width="20" height="20" fill="#4E616C"/>
<path d="M2.38498e-07 140C6.20094e-08 154.8 13.3333 159.5 20 160L20 140L2.38498e-07 140Z" fill="#4E616C"/>
</svg>
