<svg width="80" height="160" viewBox="0 0 80 160" fill="none" xmlns="http://www.w3.org/2000/svg">
<rect y="120" width="20" height="20" fill="#4E616C"/>
<rect x="60" y="80" width="20" height="20" fill="#4E616C"/>
<rect x="60" y="60" width="20" height="20" fill="#4E616C"/>
<rect x="60" y="120" width="20" height="20" fill="#4E616C"/>
<rect x="60" y="100" width="20" height="20" fill="#4E616C"/>
<path d="M2.38498e-07 140C6.20094e-08 154.8 13.3333 159.5 20 160L20 140L2.38498e-07 140Z" fill="#4E616C"/>
<path d="M20 120C20 105.2 6.66667 100.5 -1.90735e-06 100L-2.78158e-06 120L20 120Z" fill="#4E616C"/>
<path d="M80 60C80 45.2 66.6667 40.5 60 40L60 60L80 60Z" fill="#4E616C"/>
<path d="M40 160C24.4 160 20.1667 146.667 20 140V160H40Z" fill="#4E616C"/>
<path d="M60 140C60 155.6 46.6667 159.833 40 160L60 160L60 140Z" fill="#4E616C"/>
<path d="M80 140L60 160L60 140L80 140Z" fill="#4E616C"/>
<rect x="65" width="5" height="5" fill="#4E616C"/>
<rect x="65" y="10" width="5" height="5" fill="#4E616C"/>
<rect x="65" y="5" width="5" height="5" fill="#4E616C"/>
<rect x="65" y="15" width="5" height="5" fill="#4E616C"/>
<rect x="60" y="10" width="5" height="5" fill="#4E616C"/>
<rect x="60" y="5" width="5" height="5" fill="#4E616C"/>
<rect x="75" y="10" width="5" height="5" fill="#4E616C"/>
<rect x="75" y="5" width="5" height="5" fill="#4E616C"/>
<rect x="70" width="5" height="5" fill="#4E616C"/>
<rect x="70" y="10" width="5" height="5" fill="#4E616C"/>
<rect x="70" y="5" width="5" height="5" fill="#4E616C"/>
<rect x="70" y="15" width="5" height="5" fill="#4E616C"/>
<path d="M80 5C80 1.3 76.6667 0.125 75 -2.18557e-07L75 5L80 5Z" fill="#4E616C"/>
<path d="M60 15C60 18.7 63.3333 19.875 65 20L65 15L60 15Z" fill="#4E616C"/>
<path d="M80 15L75 20V15H80Z" fill="#4E616C"/>
<path d="M60 5L65 0L65 5L60 5Z" fill="#4E616C"/>
</svg>
