<svg width="152" height="80" viewBox="0 0 152 80" fill="none" xmlns="http://www.w3.org/2000/svg">
<rect y="40" width="20" height="20" fill="#4E616C"/>
<rect y="20" width="20" height="20" fill="#4E616C"/>
<path d="M2.38498e-07 60C6.20094e-08 74.8 13.3333 79.5 20 80L20 60L2.38498e-07 60Z" fill="#4E616C"/>
<path d="M20 20C20 5.2 6.66667 0.5 -1.90735e-06 2.38498e-07L-1.66885e-06 20L20 20Z" fill="#4E616C"/>
<rect x="52" width="20" height="20" fill="#4E616C"/>
<rect x="72" y="40" width="20" height="20" fill="#4E616C"/>
<rect x="72" y="20" width="20" height="20" fill="#4E616C"/>
<path d="M72 60C72 74.8 85.3333 79.5 92 80L92 60L72 60Z" fill="#4E616C"/>
<path d="M52 20C67.6 20 71.8333 33.3333 72 40L72 20L52 20Z" fill="#4E616C"/>
<path d="M92 20C92 5.2 78.6667 0.5 72 2.38498e-07L72 20L92 20Z" fill="#4E616C"/>
<path d="M32 20L52 0L52 20L32 20Z" fill="#4E616C"/>
<rect x="112" width="20" height="20" fill="#4E616C"/>
<rect x="132" y="40" width="20" height="20" fill="#4E616C"/>
<rect x="132" y="20" width="20" height="20" fill="#4E616C"/>
<path d="M132 60C132 74.8 145.333 79.5 152 80L152 60L132 60Z" fill="#4E616C"/>
<path d="M112 20C127.6 20 131.833 33.3333 132 40L132 20L112 20Z" fill="#4E616C"/>
<path d="M152 20C152 5.2 138.667 0.5 132 2.38498e-07L132 20L152 20Z" fill="#4E616C"/>
<path d="M92 20L112 0L112 20L92 20Z" fill="#4E616C"/>
</svg>
