<svg width="109" height="160" viewBox="0 0 109 160" fill="none" xmlns="http://www.w3.org/2000/svg">
<rect x="49" width="20" height="20" fill="#4E616C"/>
<rect x="49" y="60" width="20" height="20" fill="#4E616C"/>
<rect x="89" y="40" width="20" height="20" fill="#4E616C"/>
<rect x="89" y="20" width="20" height="20" fill="#4E616C"/>
<rect x="29" y="40" width="20" height="20" fill="#4E616C"/>
<rect x="29" y="20" width="20" height="20" fill="#4E616C"/>
<rect x="69" y="60" width="20" height="20" fill="#4E616C"/>
<rect x="69" width="20" height="20" fill="#4E616C"/>
<path d="M29 20L49 0L49 20L29 20Z" fill="#4E616C"/>
<path d="M109 60L89 80L89 60L109 60Z" fill="#4E616C"/>
<path d="M29 60C29 74.8 42.3333 79.5 49 80L49 60L29 60Z" fill="#4E616C"/>
<path d="M109 20C109 5.2 95.6667 0.499999 89 -8.74228e-07L89 20L109 20Z" fill="#4E616C"/>
<path d="M69 60C53.4 60 49.1667 46.6667 49 40V60H69Z" fill="#4E616C"/>
<path d="M69 20C84.6 20 88.8333 33.3333 89 40L89 20L69 20Z" fill="#4E616C"/>
<path d="M20 20C20 5.2 6.66667 0.499999 -1.90735e-06 -8.74228e-07L-2.78158e-06 20L20 20Z" fill="#4E616C"/>
<rect y="20" width="20" height="20" fill="#4E616C"/>
<rect y="40" width="20" height="20" fill="#4E616C"/>
<rect y="80" width="20" height="20" fill="#4E616C"/>
<rect y="60" width="20" height="20" fill="#4E616C"/>
<rect y="120" width="20" height="20" fill="#4E616C"/>
<rect y="100" width="20" height="20" fill="#4E616C"/>
<path d="M2.38498e-07 140C6.20094e-08 154.8 13.3333 159.5 20 160L20 140L2.38498e-07 140Z" fill="#4E616C"/>
</svg>
