<svg width="90" height="80" viewBox="0 0 90 80" fill="none" xmlns="http://www.w3.org/2000/svg">
<rect y="40" width="20" height="20" fill="#4E616C"/>
<rect y="20" width="20" height="20" fill="#4E616C"/>
<path d="M2.38498e-07 60C6.20094e-08 74.8 13.3333 79.5 20 80L20 60L2.38498e-07 60Z" fill="#4E616C"/>
<path d="M70 40C84.8 40 89.5 26.6667 90 20L70 20L70 40Z" fill="#4E616C"/>
<path d="M20 20C20 5.2 6.66667 0.5 -1.90735e-06 2.38498e-07L-1.66885e-06 20L20 20Z" fill="#4E616C"/>
<rect x="50" width="20" height="20" fill="#4E616C"/>
<path d="M50 20C65.6 20 69.8333 33.3333 70 40L70 20L50 20Z" fill="#4E616C"/>
<path d="M90 20C90 5.2 76.6667 0.5 70 2.38498e-07L70 20L90 20Z" fill="#4E616C"/>
<path d="M30 20L50 0L50 20L30 20Z" fill="#4E616C"/>
</svg>
