<svg width="80" height="80" viewBox="0 0 80 80" fill="none" xmlns="http://www.w3.org/2000/svg">
<path d="M80 50C80 42.6 66.6667 40.25 60 40L60 50L80 50Z" fill="#4E616C"/>
<rect x="60" y="20" width="20" height="10" fill="#4E616C"/>
<rect x="40" width="20" height="10" fill="#4E616C"/>
<rect y="20" width="20" height="10" fill="#4E616C"/>
<rect x="20" y="70" width="20" height="10" fill="#4E616C"/>
<rect y="50" width="20" height="10" fill="#4E616C"/>
<rect x="60" y="50" width="20" height="10" fill="#4E616C"/>
<rect x="40" y="70" width="20" height="10" fill="#4E616C"/>
<rect x="20" width="20" height="10" fill="#4E616C"/>
<path d="M40 10C55.6 10 59.8333 16.6667 60 20L60 10L40 10Z" fill="#4E616C"/>
<path d="M40 40C24.4 40 20.1667 33.3333 20 30L20 40H40Z" fill="#4E616C"/>
<path d="M40 40C55.6 40 59.8333 46.6667 60 50L60 40L40 40Z" fill="#4E616C"/>
<path d="M40 70C24.4 70 20.1667 63.3333 20 60L20 70H40Z" fill="#4E616C"/>
<path d="M80 20C80 5.2 66.6667 0.5 60 2.38498e-07L60 20L80 20Z" fill="#4E616C"/>
<path d="M-4.37114e-07 30C-1.1365e-07 37.4 13.3333 39.75 20 40L20 30L-4.37114e-07 30Z" fill="#4E616C"/>
<path d="M-8.74228e-07 60C-2.27299e-07 74.8 13.3333 79.5 20 80L20 60L-8.74228e-07 60Z" fill="#4E616C"/>
<path d="M80 60L60 80V60H80Z" fill="#4E616C"/>
<path d="M0 20L20 0L20 20L0 20Z" fill="#4E616C"/>
</svg>
