<svg width="80" height="80" viewBox="0 0 80 80" fill="none" xmlns="http://www.w3.org/2000/svg">
<rect x="60" y="40" width="20" height="20" fill="#4E616C"/>
<rect x="60" y="20" width="20" height="20" fill="#4E616C"/>
<rect x="40" y="60" width="20" height="20" fill="#4E616C"/>
<path d="M80 60L60 80L60 60L80 60Z" fill="#4E616C"/>
<rect x="40" y="80" width="20" height="20" transform="rotate(-180 40 80)" fill="#4E616C"/>
<rect x="20" y="60" width="20" height="20" transform="rotate(-180 20 60)" fill="#4E616C"/>
<rect x="20" y="40" width="20" height="20" transform="rotate(-180 20 40)" fill="#4E616C"/>
<path d="M40 60C24.4 60 20.1667 46.6667 20 40V60H40Z" fill="#4E616C"/>
<path d="M1.50996e-06 60C3.92589e-07 74.8 13.3333 79.5 20 80L20 60L1.50996e-06 60Z" fill="#4E616C"/>
<path d="M0 20L20 0L20 20L0 20Z" fill="#4E616C"/>
<path d="M80 20C80 5.2 66.6667 0.499999 60 -8.74228e-07L60 20L80 20Z" fill="#4E616C"/>
</svg>
