<svg width="120" height="80" viewBox="0 0 120 80" fill="none" xmlns="http://www.w3.org/2000/svg">
<path d="M40 80C54.8 80 59.5 66.6667 60 60L40 60L40 80Z" fill="#4E616C"/>
<rect x="40" y="80" width="20" height="20" transform="rotate(180 40 80)" fill="#4E616C"/>
<rect x="20" y="60" width="20" height="20" transform="rotate(180 20 60)" fill="#4E616C"/>
<rect x="20" y="40" width="20" height="20" transform="rotate(180 20 40)" fill="#4E616C"/>
<path d="M40 60C24.4 60 20.1667 46.6667 20 40L20 60L40 60Z" fill="#4E616C"/>
<path d="M-7.96045e-08 60C1.39074e-06 74.8 13.3333 79.5 20 80L20 60L-7.96045e-08 60Z" fill="#4E616C"/>
<path d="M1.90735e-06 20L20 0L20 20L1.90735e-06 20Z" fill="#4E616C"/>
<rect x="100" y="40" width="20" height="20" fill="#4E616C"/>
<rect x="100" y="20" width="20" height="20" fill="#4E616C"/>
<path d="M120 3.49691e-06C105.2 9.09197e-07 100.5 13.3333 100 20L120 20L120 3.49691e-06Z" fill="#4E616C"/>
<rect x="100" y="80" width="20" height="20" transform="rotate(180 100 80)" fill="#4E616C"/>
<rect x="80" y="60" width="20" height="20" transform="rotate(180 80 60)" fill="#4E616C"/>
<rect x="80" y="40" width="20" height="20" transform="rotate(180 80 40)" fill="#4E616C"/>
<path d="M80 20C80 5.2 66.6667 0.500001 60 1.50996e-06L60 20L80 20Z" fill="#4E616C"/>
<path d="M100 60C84.4 60 80.1667 46.6667 80 40L80 60L100 60Z" fill="#4E616C"/>
<path d="M60 60C60 74.8 73.3333 79.5 80 80L80 60L60 60Z" fill="#4E616C"/>
<path d="M120 60L100 80L100 60L120 60Z" fill="#4E616C"/>
</svg>
